<svg width="400" height="56" viewBox="0 0 400 56" fill="none" xmlns="http://www.w3.org/2000/svg">
<g clip-path="url(#clip0_14871_8405)">
<path d="M380.987 45.847L382.446 41.9365L369.546 9.59033H375.593L385.094 36.2077H385.22L394.345 9.59033H400.008L385.707 46.9216C384.632 49.2957 383.619 50.7708 382.503 51.8904C380.129 54.2768 377.236 55.568 373.424 55.568V51.2366C376.051 51.2366 378.033 50.4194 379.381 48.6092C380.017 47.7503 380.555 46.824 380.987 45.847Z" fill="#0E7490"/>
<path d="M116.648 27.1037C116.648 21.4484 115.316 16.9741 112.693 13.795C110.069 10.616 106.269 8.8916 101.542 8.8916C96.8138 8.8916 92.8707 10.6364 89.9695 13.9748C87.2277 17.1457 85.8384 21.1787 85.8384 25.9596C85.8384 30.912 87.0969 34.9206 89.5895 37.8912C92.3354 41.1397 96.3644 42.7946 101.546 42.7946C105.632 42.7946 108.974 41.7445 111.5 39.6646C113.645 37.8871 115.275 35.3087 116.342 31.9948L116.644 31.0469H110.809L110.666 31.6148C110.228 33.5537 109.073 35.2555 107.434 36.3793C105.694 37.545 103.635 38.1418 101.542 38.0873C98.2726 38.0873 95.7719 37.078 93.9535 34.9818C92.3763 33.1676 91.5018 30.7649 91.4038 27.8392H116.648V27.1037ZM101.529 13.6193C104.594 13.6193 106.919 14.6327 108.647 16.7207C110.102 18.4696 110.895 20.7292 111.017 23.4384H91.4855C91.8453 20.9824 92.8761 18.6733 94.4643 16.7657C95.3269 15.7363 96.4123 14.9166 97.6384 14.3687C98.8646 13.8208 100.199 13.5589 101.542 13.603L101.529 13.6193Z" fill="#0E7490"/>
<path d="M132.31 14.4079H139.506V9.09589H131.91V5.57359C131.91 -0.012214 126.435 -0.012207 126.435 -0.012207V9.09589H121.18V14.4079H126.435V30.0498C126.435 33.9112 127.697 37.0372 130.182 39.354C132.666 41.6709 135.677 42.7864 139.49 42.7864V37.6051C136.862 37.6051 134.917 36.747 133.532 34.9777C132.42 33.5152 131.843 31.715 131.898 29.8782V14.4079H132.31Z" fill="#0E7490"/>
<path d="M67.0543 14.1098C69.6858 14.1098 71.639 14.9679 73.0283 16.7372C74.1327 18.2014 74.7024 19.9997 74.6423 21.8327V37.1967C74.6423 42.7866 80.1178 42.7866 80.1178 42.7866V21.6692C80.1178 17.8609 78.892 14.7554 76.4648 12.4181C73.9763 10.0727 70.9035 8.93262 67.0666 8.93262C63.2297 8.93262 60.2181 10.0563 57.7623 12.3732C55.3065 14.69 54.0112 17.7874 54.0112 21.6692V42.807H59.4785V21.8327C59.4204 19.9967 59.9977 18.1968 61.113 16.7372C62.4819 14.9679 64.4269 14.1098 67.0543 14.1098Z" fill="#0E7490"/>
<path d="M169.131 12.3974C166.646 10.0519 163.578 8.9119 159.733 8.9119C156.762 8.9119 154.269 9.60656 152.149 10.9999V0.012207H146.677V42.8313H152.145V21.8324C152.086 19.9964 152.664 18.1965 153.779 16.7369C155.164 14.9676 157.109 14.1095 159.737 14.1095C162.364 14.1095 164.321 14.9676 165.707 16.7369C166.82 18.1976 167.397 19.9967 167.341 21.8324V37.2455C167.341 42.8313 172.817 42.8313 172.817 42.8313V21.6689C172.792 17.8402 171.558 14.7224 169.131 12.3974Z" fill="#0E7490"/>
<path d="M186.06 34.855C186.548 35.6607 187.229 36.332 188.042 36.8082C188.901 37.3068 189.837 37.6577 190.812 37.8461C191.857 38.0571 192.921 38.1625 193.987 38.1607C194.872 38.1563 195.755 38.0935 196.631 37.9728C197.509 37.86 198.367 37.6262 199.181 37.2781C199.938 36.9595 200.6 36.4499 201.101 35.7989C201.625 35.0794 201.89 34.2038 201.853 33.3145C201.886 32.6987 201.758 32.085 201.482 31.5334C201.207 30.9818 200.792 30.5114 200.28 30.1682C199.072 29.3831 197.744 28.7994 196.349 28.4397C194.777 27.9984 193.068 27.5993 191.221 27.2425C189.465 26.9143 187.746 26.4077 186.093 25.7306C184.59 25.1297 183.244 24.1933 182.158 22.9929C181.106 21.8188 180.582 20.1843 180.585 18.0894C180.544 16.6075 180.927 15.1447 181.688 13.8725C182.402 12.7161 183.37 11.7378 184.52 11.0122C185.722 10.258 187.041 9.70584 188.422 9.37772C189.831 9.02604 191.277 8.84629 192.729 8.84242C194.445 8.82646 196.159 8.98252 197.845 9.30825C199.309 9.59015 200.708 10.1446 201.968 10.9427C203.173 11.7315 204.157 12.8144 204.828 14.0891C205.598 15.6261 206.027 17.3112 206.086 19.0293H200.705C200.676 18.1553 200.424 17.3033 199.973 16.5544C199.522 15.8055 198.886 15.1846 198.127 14.751C197.392 14.3249 196.595 14.0174 195.765 13.8398C194.907 13.6506 194.032 13.5547 193.154 13.5538C192.342 13.5557 191.532 13.6199 190.731 13.7458C189.959 13.8556 189.207 14.0772 188.5 14.4037C187.865 14.6908 187.305 15.1217 186.865 15.6623C186.426 16.2502 186.203 16.9721 186.236 17.7053C186.225 18.1356 186.307 18.5632 186.475 18.9593C186.644 19.3554 186.895 19.7109 187.212 20.0018C187.939 20.6566 188.781 21.1695 189.697 21.5137C190.801 21.9386 191.938 22.2748 193.096 22.5189C194.355 22.7913 195.614 23.0746 196.872 23.3688C198.2 23.6587 199.512 24.016 200.803 24.4394C202.013 24.8216 203.159 25.3836 204.203 26.1065C205.182 26.7907 205.998 27.6822 206.593 28.7176C207.237 29.9146 207.552 31.2614 207.504 32.6199C207.569 34.3375 207.144 36.0381 206.278 37.5233C205.473 38.811 204.374 39.8893 203.071 40.6697C201.692 41.4875 200.178 42.0522 198.601 42.3368C196.972 42.6482 195.318 42.8056 193.66 42.8067C191.926 42.8142 190.196 42.6251 188.504 42.2428C186.953 41.9009 185.479 41.2717 184.16 40.3877C182.893 39.5159 181.857 38.3492 181.14 36.988C180.344 35.4029 179.918 33.658 179.894 31.8844H185.243C185.253 32.9288 185.534 33.9526 186.06 34.855Z" fill="#0E7490"/>
<path d="M236.463 40.0566C234.031 41.9035 230.969 42.8257 227.277 42.8229C224.96 42.8788 222.657 42.4501 220.515 41.5644C218.663 40.7703 217.016 39.5659 215.697 38.0421C214.359 36.4603 213.362 34.6181 212.772 32.632C212.099 30.3992 211.729 28.0862 211.672 25.755C211.644 23.4407 212.028 21.1399 212.804 18.9597C213.509 16.9882 214.588 15.1718 215.983 13.6109C217.333 12.1098 218.983 10.9085 220.825 10.0845C222.756 9.23379 224.845 8.80473 226.955 8.82595C229.848 8.82595 232.249 9.42388 234.159 10.6198C236.02 11.7696 237.592 13.331 238.755 15.184C239.915 17.0383 240.729 19.0872 241.158 21.2316C241.587 23.2796 241.767 25.3719 241.693 27.463H217.336C217.286 28.8337 217.456 30.2035 217.838 31.5206C218.198 32.7709 218.821 33.93 219.665 34.9203C220.544 35.936 221.641 36.7417 222.873 37.278C224.323 37.8963 225.889 38.1972 227.465 38.1606C229.732 38.1606 231.588 37.6362 233.035 36.5874C234.481 35.5387 235.435 33.9437 235.895 31.8025H241.179C240.47 35.4556 238.899 38.2069 236.463 40.0566ZM235.176 19.164C234.474 17.4869 233.288 16.0576 231.768 15.0595C230.249 14.0613 228.466 13.5398 226.648 13.5618C225.364 13.5434 224.089 13.791 222.905 14.2892C221.827 14.7481 220.853 15.4225 220.045 16.271C219.24 17.1213 218.6 18.1132 218.157 19.1967C217.69 20.3283 217.414 21.5296 217.34 22.7516H236.03C235.95 21.5134 235.661 20.2977 235.176 19.1558V19.164Z" fill="#0E7490"/>
<path d="M266.668 15.2535C265.328 14.1203 263.524 13.5537 261.258 13.5537C259.578 13.4977 257.911 13.8659 256.412 14.6242C255.157 15.2984 254.088 16.2709 253.298 17.456C252.496 18.6949 251.93 20.0722 251.631 21.5176C251.29 23.0772 251.122 24.6694 251.128 26.2658C251.125 27.7462 251.304 29.2214 251.659 30.6584C251.986 32.0162 252.551 33.3054 253.327 34.4667C254.085 35.5811 255.099 36.4975 256.285 37.1391C257.623 37.8416 259.118 38.1891 260.629 38.1484C263.274 38.1484 265.34 37.4564 266.827 36.0726C268.315 34.6887 269.227 32.7369 269.565 30.2171H275.036C274.453 34.2461 272.955 37.3516 270.542 39.5336C268.128 41.7156 264.845 42.8052 260.694 42.8025C258.445 42.8452 256.21 42.4396 254.119 41.6093C252.282 40.8673 250.642 39.7075 249.33 38.2219C248.015 36.6881 247.03 34.8991 246.437 32.9671C245.767 30.7974 245.437 28.5366 245.461 26.2658C245.446 23.9562 245.764 21.6566 246.405 19.4378C246.981 17.4207 247.954 15.5386 249.265 13.901C250.564 12.312 252.211 11.0426 254.078 10.1907C256.196 9.24812 258.495 8.78488 260.812 8.83412C262.565 8.82218 264.312 9.0448 266.006 9.49608C267.548 9.90178 268.999 10.595 270.284 11.5392C271.534 12.4767 272.574 13.6653 273.337 15.0288C274.178 16.5761 274.693 18.2799 274.848 20.0343H269.312C268.892 17.9831 268.011 16.3895 266.668 15.2535Z" fill="#0E7490"/>
<path d="M344.738 9.59033V42.1245H339.39V9.59033H344.738Z" fill="#0E7490"/>
<path d="M342.066 6.05962C343.61 6.05962 344.861 4.80828 344.861 3.26467C344.861 1.72107 343.61 0.469727 342.066 0.469727C340.523 0.469727 339.271 1.72107 339.271 3.26467C339.271 4.80828 340.523 6.05962 342.066 6.05962Z" fill="#0E7490"/>
<path d="M359.829 14.8898H367.012V9.57782H359.412V6.05554C359.412 0.469732 353.941 0.469727 353.941 0.469727V9.57782H348.698V14.8898H353.937V30.5358C353.937 34.3932 355.199 37.5232 357.684 39.836C360.168 42.1487 363.18 43.2683 366.992 43.2683V38.0748C364.365 38.0748 362.42 37.2167 361.034 35.4474C359.922 33.9847 359.345 32.1847 359.4 30.3479V14.8898H359.829Z" fill="#0E7490"/>
<path d="M287.332 9.59033V30.5442C287.274 32.3803 287.851 34.1801 288.966 35.6397C290.351 37.409 292.296 38.2671 294.924 38.2671C297.551 38.2671 299.509 37.409 300.898 35.6397C302.01 34.1782 302.586 32.3797 302.532 30.5442V15.1802C302.532 9.59033 308.008 9.59033 308.008 9.59033V30.7281C308.008 34.5364 306.782 37.6419 304.355 39.9792C301.866 42.3247 298.793 43.4647 294.957 43.4647C291.12 43.4647 288.108 42.341 285.652 40.0242C283.197 37.7073 281.905 34.5896 281.905 30.7281V9.59033H287.332Z" fill="#0E7490"/>
<path d="M337.437 13.0147C335.058 10.7714 332.125 9.67627 328.447 9.67627C324.769 9.67627 321.885 10.755 319.539 12.9657C317.194 15.1763 315.943 18.1796 315.943 21.8776V42.1246H321.182V22.0533C321.12 20.2984 321.664 18.5757 322.722 17.1744C324.05 15.4786 325.914 14.6573 328.443 14.6573C330.972 14.6573 332.836 15.4746 334.164 17.1744L337.437 13.0147Z" fill="#0E7490"/>
<path d="M18.3469 44.1717L0 25.8248L18.3469 7.48193L36.6939 25.8248L18.3469 44.1717ZM7.72288 25.7839L18.3469 36.3835L28.971 25.7839L18.3469 15.1599L7.72288 25.7839Z" fill="#0E7490"/>
</g>
<defs>
<clipPath id="clip0_14871_8405">
<rect width="400" height="55.5557" fill="white"/>
</clipPath>
</defs>
</svg>
